<!DOCTYPE svg PUBLIC "-//W3C//DTD SVG 1.1//EN" "http://www.w3.org/Graphics/SVG/1.1/DTD/svg11.dtd">
<!-- Uploaded to: SVG Repo, www.svgrepo.com, Transformed by: SVG Repo Mixer Tools -->
<svg fill="#e8f80d" height="800px" width="800px" version="1.1" id="Layer_1" xmlns="http://www.w3.org/2000/svg" xmlns:xlink="http://www.w3.org/1999/xlink" viewBox="-153.6 -153.6 819.20 819.20" xml:space="preserve" stroke="#e8f80d" transform="matrix(-1, 0, 0, 1, 0, 0)rotate(0)">
<g id="SVGRepo_bgCarrier" stroke-width="0" transform="translate(12.800000000000011,12.800000000000011), scale(0.95)">
<rect x="-153.6" y="-153.6" width="819.20" height="819.20" rx="409.6" fill="#1252E0FF" strokewidth="0"/>
</g>
<g id="SVGRepo_tracerCarrier" stroke-linecap="round" stroke-linejoin="round" stroke="#CCCCCC" stroke-width="1.024"/>
<g id="SVGRepo_iconCarrier"> <g> <g> <g> <path d="M256,0C114.618,0,0,114.618,0,256s114.618,256,256,256s256-114.618,256-256S397.382,0,256,0z M256,469.333 c-117.818,0-213.333-95.515-213.333-213.333S138.182,42.667,256,42.667S469.333,138.182,469.333,256S373.818,469.333,256,469.333 z"/> <path d="M341.333,213.333c23.573,0,42.667-19.093,42.667-42.667C384,147.093,364.907,128,341.333,128 c-23.573,0-42.667,19.093-42.667,42.667C298.667,194.24,317.76,213.333,341.333,213.333z"/> <path d="M170.667,213.333c23.573,0,42.667-19.093,42.667-42.667c0-23.573-19.093-42.667-42.667-42.667 C147.093,128,128,147.093,128,170.667C128,194.24,147.093,213.333,170.667,213.333z"/> <path d="M384,256c-11.782,0-21.333,9.551-21.333,21.333C362.667,333.434,312.101,384,256,384s-106.667-50.566-106.667-106.667 c0-11.782-9.551-21.333-21.333-21.333c-11.782,0-21.333,9.551-21.333,21.333c0,79.665,69.669,149.333,149.333,149.333 s149.333-69.669,149.333-149.333C405.333,265.551,395.782,256,384,256z"/> </g> </g> </g> </g>
</svg>